:SAMPLES-PER-SECOND 30
:FRAME-RANGE 1-1770
:FULLY-SPECIFIED
:DEGREES
1051
root  -27.2108 36.8353 21.769 88.8463 80.1855 92.8467
RightUpLeg  1.54065 -6.28272 -36.5078
RightLeg  33.8182 -14.9714 -10.7759
RightFoot  2.34358 -2.62635 21.7783
RightToes  6.35937e-011 1.2921e-014 -6.02303e-014
Spine  7.38225 6.53332 19.5758
Spine1  -5.67998 8.95497 -12.9873
HEad  12.0406 18.2698 -7.34138
LeftShoulder1  -0.108015 4.07658 -11.6537
LeftArm  -62.5215 29.0558 12.4361
LeftForeArm  112.381 -77.7368 -121.467
LeftHand  0.746955 10.6096 16.9974
RightShoulder  -1.8663 26.6112 -16.7073
RightArm  -78.1801 40.4705 -17.175
RightForeArm  23.865 43.9897 9.1739
RightHand  -1.15456 2.89782 -16.3086
LeftUpLeg  4.59758 8.21779 8.90115
LeftLeg  20.5433 -6.66303 -2.42058
LeftFoot  -19.2893 -1.28152 -19.9221
LeftToes  3.18074e-010 1.39432e-010 -7.71186e-011
1052
root  -28.2638 36.3746 23.5249 67.4484 77.5974 72.2881
RightUpLeg  -1.02218 -6.76621 -34.4674
RightLeg  36.3041 -19.3956 -14.904
RightFoot  -10.0688 -0.256064 16.7467
RightToes  6.35937e-011 1.2921e-014 -6.02303e-014
Spine  8.4907 5.8523 20.1261
Spine1  -4.27847 9.4849 -14.6653
HEad  13.9331 20.4607 -5.45703
LeftShoulder1  -0.153694 4.14138 -17.3899
LeftArm  -59.5993 35.7732 7.57879
LeftForeArm  141.877 -65.6513 -155.245
LeftHand  1.35159 12.9329 20.804
RightShoulder  0.448864 29.633 -8.13335
RightArm  -75.5216 39.9576 -15.5828
RightForeArm  27.6134 53.4532 12.919
RightHand  -1.276 2.10348 -19.8031
LeftUpLeg  4.6592 10.3331 10.1213
LeftLeg  21.3033 -5.53415 -2.04757
LeftFoot  -16.8243 -1.05214 -23.7492
LeftToes  3.18074e-010 1.39432e-010 -7.71186e-011
1053
root  -29.2986 36.0756 25.4402 53.6639 74.9722 58.3276
RightUpLeg  -5.49502 -4.25929 -32.9223
RightLeg  39.576 -13.5617 -11.9935
RightFoot  -17.2374 1.24606 26.0649
RightToes  6.35937e-011 1.2921e-014 -6.02303e-014
Spine  9.39897 4.87191 22.6476
Spine1  -4.17469 9.66881 -19.8097
HEad  16.9424 23.0274 -4.17829
LeftShoulder1  0.114902 3.12091 -23.6963
LeftArm  -52.7623 36.0652 -0.844724
LeftForeArm  149.165 -60.1787 -160.805
LeftHand  1.2766 12.4532 20.9892
RightShoulder  3.86241 31.7517 2.66969
RightArm  -65.9399 41.2348 -9.87873
RightForeArm  31.6126 57.7006 15.0456
RightHand  -1.29155 1.92915 -20.4963
LeftUpLeg  2.94526 10.8419 12.2611
LeftLeg  23.2353 -3.34977 -1.24346
LeftFoot  -11.484 0.0318717 -28.527
LeftToes  3.18074e-010 1.39432e-010 -7.71186e-011
1054
root  -30.3368 35.8376 27.1841 44.2524 73.8307 48.3975
RightUpLeg  -10.6495 -6.66271 -29.9442
RightLeg  44.2047 -8.05149 -8.6005
RightFoot  -21.4828 2.0479 24.3921
RightToes  6.35937e-011 1.2921e-014 -6.02303e-014
Spine  9.74407 3.90252 23.7864
Spine1  -3.45472 9.06804 -19.7682
HEad  17.1593 25.008 -6.01155
LeftShoulder1  0.403274 2.31321 -27.7212
LeftArm  -45.82 31.5353 -16.2168
LeftForeArm  146.666 -69.2336 -151.364
LeftHand  0.676879 10.3694 16.2331
RightShoulder  6.16811 31.0844 10.3168
RightArm  -51.5256 42.4865 -2.25741
RightForeArm  26.9195 55.9158 14.3685
RightHand  -1.15537 2.38096 -17.3603
LeftUpLeg  -1.80324 9.25995 14.5521
LeftLeg  29.0532 1.39238 1.18128
LeftFoot  -3.41637 1.40011 -19.7474
LeftToes  3.18074e-010 1.39432e-010 -7.71186e-011
1055
root  -31.2696 36.0829 28.6336 35.8282 72.7299 39.9485
RightUpLeg  -13.0993 -9.08072 -26.1099
RightLeg  45.2016 -5.71844 -6.4537
RightFoot  -22.765 1.88047 20.1648
RightToes  6.35937e-011 1.2921e-014 -6.02303e-014
Spine  10.3878 2.87138 23.2572
Spine1  -2.18879 7.90945 -15.103
HEad  14.2879 26.2155 -9.17665
LeftShoulder1  0.701479 1.47133 -28.3932
LeftArm  -35.8765 24.8334 -26.3568
LeftForeArm  50.964 -77.0627 -50.8882
LeftHand  0.115517 6.62719 12.6706
RightShoulder  7.92829 30.3336 16.4399
RightArm  -33.6472 42.4389 3.66925
RightForeArm  16.6663 50.0678 12.1586
RightHand  -1.02819 3.09878 -14.2362
LeftUpLeg  -6.15381 5.88304 15.3294
LeftLeg  36.5231 7.28027 6.11227
LeftFoot  -2.0052 1.05149 -12.6903
LeftToes  3.18074e-010 1.39432e-010 -7.71186e-011
1056
root  -32.1248 36.4775 30.1354 27.8934 69.7014 31.7374
RightUpLeg  -15.5139 -5.72849 -21.4667
RightLeg  45.093 -6.73021 -7.4957
RightFoot  -22.9188 1.62182 17.419
RightToes  6.35937e-011 1.2921e-014 -6.02303e-014
Spine  11.824 2.10809 21.8347
Spine1  -1.18017 6.85947 -11.7028
HEad  12.2453 28.8692 -11.6417
LeftShoulder1  0.940817 0.76918 -28.2917
LeftArm  -20.7819 17.257 -28.4323
LeftForeArm  18.2207 -50.0198 -12.0063
LeftHand  -0.423439 1.7006 13.2323
RightShoulder  9.70268 31.2118 21.2429
RightArm  -15.5271 41.2038 9.67497
RightForeArm  12.4859 40.2109 8.6753
RightHand  -0.952318 4.40524 -11.5299
LeftUpLeg  -10.4856 5.95958 14.361
LeftLeg  44.2071 7.51192 8.14868
LeftFoot  -3.76785 0.4796 -6.90013
LeftToes  3.18074e-010 1.39432e-010 -7.71186e-011
